<svg width="400" height="300" viewBox="0 0 400 300" xmlns="http://www.w3.org/2000/svg">
  <!-- Background -->
  <rect width="400" height="300" fill="#f3f4f6"/>
  
  <!-- Hotel building -->
  <rect x="50" y="100" width="300" height="180" fill="#e5e7eb" stroke="#9ca3af" stroke-width="2"/>
  
  <!-- Roof -->
  <polygon points="50,100 200,50 350,100" fill="#6b7280"/>
  
  <!-- Windows -->
  <rect x="80" y="130" width="30" height="40" fill="#3b82f6"/>
  <rect x="130" y="130" width="30" height="40" fill="#3b82f6"/>
  <rect x="180" y="130" width="30" height="40" fill="#3b82f6"/>
  <rect x="230" y="130" width="30" height="40" fill="#3b82f6"/>
  <rect x="280" y="130" width="30" height="40" fill="#3b82f6"/>
  
  <rect x="80" y="190" width="30" height="40" fill="#3b82f6"/>
  <rect x="130" y="190" width="30" height="40" fill="#3b82f6"/>
  <rect x="180" y="190" width="30" height="40" fill="#3b82f6"/>
  <rect x="230" y="190" width="30" height="40" fill="#3b82f6"/>
  <rect x="280" y="190" width="30" height="40" fill="#3b82f6"/>
  
  <!-- Door -->
  <rect x="185" y="220" width="30" height="60" fill="#92400e"/>
  
  <!-- Text -->
  <text x="200" y="40" text-anchor="middle" font-family="Arial, sans-serif" font-size="16" fill="#6b7280">No Image Available</text>
</svg>
